<svg width="68" height="67" viewBox="0 0 68 67" fill="none" xmlns="http://www.w3.org/2000/svg">
<path d="M66.6768 33.5C66.6768 51.4398 51.984 66 33.8384 66C15.6927 66 1 51.4398 1 33.5C1 15.5602 15.6927 1 33.8384 1C51.984 1 66.6768 15.5602 66.6768 33.5Z" fill="#141515" stroke="#F5A500" stroke-width="2"/>
<line x1="5.76762" y1="16.5656" x2="8.47469" y2="19.2727" stroke="#F5A500"/>
<line x1="2.31106" y1="21.9196" x2="5.47875" y2="24.0696" stroke="#F5A500"/>
<line x1="0.341395" y1="30.3721" x2="4.16958" y2="30.3335" stroke="#F5A500"/>
<line x1="0.580059" y1="36.7953" x2="4.33616" y2="36.0549" stroke="#F5A500"/>
<line x1="1.25682" y1="41.5327" x2="5.01291" y2="40.7923" stroke="#F5A500"/>
<line x1="3.28709" y1="46.9468" x2="7.04319" y2="46.2064" stroke="#F5A500"/>
<line x1="6.02049" y1="52.1473" x2="9.50096" y2="50.5527" stroke="#F5A500"/>
<line x1="9.26659" y1="55.9583" x2="12.747" y2="54.3636" stroke="#F5A500"/>
<line x1="13.5393" y1="59.9478" x2="16.3261" y2="57.3229" stroke="#F5A500"/>
<line x1="17.9299" y1="62.4932" x2="20.7167" y2="59.8684" stroke="#F5A500"/>
<line x1="25.0318" y1="65.6477" x2="26.974" y2="62.3486" stroke="#F5A500"/>
<line x1="32.7156" y1="66.7745" x2="32.6615" y2="62.9465" stroke="#F5A500"/>
<line x1="38.758" y1="66.3975" x2="38.2605" y2="63.0868" stroke="#F5A500"/>
<line x1="42.6393" y1="65.6477" x2="42.1418" y2="62.3369" stroke="#F5A500"/>
<line x1="47.3769" y1="63.6174" x2="46.8793" y2="60.3066" stroke="#F5A500"/>
<line x1="52.1176" y1="60.2521" x2="51.6199" y2="57.6181" stroke="#F5A500"/>
<line x1="56.8549" y1="56.8682" x2="56.3572" y2="54.2342" stroke="#F5A500"/>
<line x1="60.2387" y1="52.1309" x2="59.741" y2="49.4969" stroke="#F5A500"/>
<line x1="63.8702" y1="46.9639" x2="62.0508" y2="44.0825" stroke="#F5A500"/>
<line x1="65.7344" y1="41.7846" x2="63.2382" y2="38.9032" stroke="#F5A500"/>
<line x1="66.8143" y1="36.3329" x2="63.4305" y2="34.9794" stroke="#F5A500"/>
<line x1="67.2463" y1="31.051" x2="63.603" y2="30.9544" stroke="#F5A500"/>
<line x1="65.9651" y1="24.9062" x2="62.5601" y2="26.2055" stroke="#F5A500"/>
<line x1="63.8155" y1="20.7702" x2="60.4104" y2="22.0694" stroke="#F5A500"/>
<line x1="60.4317" y1="14.6793" x2="57.0266" y2="15.9785" stroke="#F5A500"/>
<line x1="56.3711" y1="9.9419" x2="52.9661" y2="11.2411" stroke="#F5A500"/>
<line x1="49.4396" y1="4.38463" x2="47.0778" y2="7.16027" stroke="#F5A500"/>
<line x1="44.0256" y1="2.35433" x2="41.6637" y2="5.12997" stroke="#F5A500"/>
<line x1="35.1306" y1="0.692657" x2="35.0148" y2="4.33532" stroke="#F5A500"/>
<line x1="26.9881" y1="1.29049" x2="28.2113" y2="4.72358" stroke="#F5A500"/>
<line x1="20.0972" y1="3.89279" x2="21.3205" y2="7.32588" stroke="#F5A500"/>
<line x1="8.47465" y1="11.8283" x2="11.1817" y2="14.5353" stroke="#F5A500"/>
<line x1="13.2122" y1="7.76766" x2="15.9193" y2="10.4747" stroke="#F5A500"/>
<path d="M62.6161 33.5C62.6161 49.5911 49.7212 62.6162 33.8383 62.6162C17.9554 62.6162 5.06055 49.5911 5.06055 33.5C5.06055 17.4089 17.9554 4.38383 33.8383 4.38383C49.7212 4.38383 62.6161 17.4089 62.6161 33.5Z" fill="#141515" stroke="#F5A500" stroke-width="2"/>
<path d="M20.0115 16.1439L32.6034 47.6197" stroke="#F5A500" stroke-width="6"/>
<path d="M32.6035 49.6499L45.6203 16" stroke="#F5A500" stroke-width="6"/>
</svg>
